<svg width="32" height="32" viewBox="0 0 32 32" fill="none" xmlns="http://www.w3.org/2000/svg">
<rect width="32" height="32" fill="#F5F5F5"/>
<g id="Buttons">
<rect width="1920" height="929" transform="translate(-1039 -736)" fill="#2B2B2B"/>
<g id="Plus">
<path id="Vector (Stroke)" fillRule="evenodd" clipRule="evenodd" d="M4 16C4 15.4477 4.44772 15 5 15H27C27.5523 15 28 15.4477 28 16C28 16.5523 27.5523 17 27 17H5C4.44772 17 4 16.5523 4 16Z" fill="white"/>
<path id="Vector (Stroke)_2" fillRule="evenodd" clipRule="evenodd" d="M16 4C16.5523 4 17 4.44772 17 5V27C17 27.5523 16.5523 28 16 28C15.4477 28 15 27.5523 15 27V5C15 4.44772 15.4477 4 16 4Z" fill="white"/>
</g>
</g>
</svg>
